Coordinates
version=1
nRows=60
nColumns=12
inDegrees=yes

Units are S.I. units (second, meters, Newtons, ...)
Angles are in degrees

endheader
time	SC_y	SC_z	SC_x	AC_y	AC_z	AC_x	GH_y	GH_z	GH_yy	EL_x	PS_y
       0.0              -50.49          6.818          51.14          56.99         -15.04          4.937         -32.42          39.91          75.35          57.57           19.8
   0.01161              -50.49           6.82          51.14          56.99         -15.04          4.939         -32.41          39.91          75.33          57.58          19.81
   0.02322               -50.5          6.823          51.14          56.99         -15.04          4.942          -32.4           39.9          75.31          57.58          19.81
   0.03483               -50.5          6.825          51.14          56.99         -15.04          4.944         -32.39          39.89          75.28          57.59          19.81
   0.04644               -50.5          6.828          51.14          56.98         -15.04          4.947         -32.39          39.88          75.26           57.6          19.82
   0.05805               -50.5          6.831          51.14          56.98         -15.04          4.949         -32.38          39.88          75.23          57.61          19.82
   0.06965               -50.5          6.835          51.14          56.98         -15.04          4.952         -32.37          39.87           75.2          57.62          19.83
   0.08126               -50.5          6.838          51.14          56.98         -15.04          4.956         -32.36          39.86          75.17          57.63          19.83
   0.09287              -50.51          6.842          51.14          56.97         -15.04          4.959         -32.35          39.85          75.13          57.65          19.84
    0.1045              -50.51          6.846          51.14          56.97         -15.04          4.963         -32.34          39.84          75.09          57.66          19.85
    0.1161              -50.51           6.85          51.14          56.97         -15.05          4.966         -32.33          39.83          75.05          57.67          19.85
    0.1277              -50.51          6.855          51.14          56.97         -15.05          4.971         -32.31          39.81          75.01          57.69          19.86
    0.1393              -50.52           6.86          51.14          56.96         -15.05          4.975          -32.3           39.8          74.97          57.71          19.87
    0.1509              -50.52          6.865          51.14          56.96         -15.05           4.98         -32.29          39.79          74.92          57.72          19.88
    0.1625              -50.52          6.871          51.14          56.95         -15.05          4.985         -32.27          39.77          74.86          57.74          19.89
    0.1741              -50.53          6.877          51.14          56.95         -15.05          4.991         -32.25          39.75           74.8          57.76           19.9
    0.1857              -50.53          6.884          51.14          56.94         -15.06          4.997         -32.23          39.73          74.74          57.79          19.91
    0.1974              -50.53          6.892          51.14          56.94         -15.06          5.004         -32.21          39.71          74.67          57.81          19.92
     0.209              -50.54            6.9          51.14          56.93         -15.06          5.012         -32.19          39.69          74.59          57.84          19.94
    0.2206              -50.54          6.909          51.14          56.93         -15.06           5.02         -32.16          39.67          74.51          57.87          19.95
    0.2322              -50.55          6.918          51.14          56.92         -15.07          5.029         -32.14          39.64          74.42           57.9          19.97
    0.2438              -50.55          6.929          51.14          56.91         -15.07          5.039         -32.11          39.61          74.32          57.94          19.98
    0.2554              -50.56          6.941          51.14           56.9         -15.07          5.049         -32.08          39.58          74.21          57.98           20.0
     0.267              -50.57          6.954          51.14          56.89         -15.08          5.061         -32.04          39.54          74.09          58.02          20.03
    0.2786              -50.58          6.969          51.14          56.88         -15.08          5.075          -32.0           39.5          73.95          58.07          20.05
    0.2902              -50.58          6.985          51.14          56.87         -15.09           5.09         -31.95          39.46           73.8          58.12          20.08
    0.3018              -50.59          7.004          51.14          56.86         -15.09          5.106          -31.9          39.41          73.63          58.18          20.11
    0.3134              -50.61          7.024          51.15          56.84          -15.1          5.125         -31.84          39.36          73.43          58.25          20.14
    0.3251              -50.62          7.048          51.15          56.83          -15.1          5.146         -31.78          39.29          73.22          58.33          20.18
    0.3367              -50.63          7.074          51.15          56.81         -15.11          5.171         -31.71          39.22          72.97          58.42          20.22
    0.3483              -50.65          7.105          51.15          56.79         -15.12          5.198         -31.62          39.14          72.69          58.52          20.27
    0.3599              -50.67          7.139          51.15          56.76         -15.13           5.23         -31.53          39.05          72.37          58.63          20.33
    0.3715              -50.69          7.179          51.15          56.73         -15.14          5.266         -31.42          38.94           72.0          58.76          20.39
    0.3831              -50.72          7.226          51.15           56.7         -15.16          5.309         -31.29          38.81          71.56          58.92          20.47
    0.3947              -50.75           7.28          51.16          56.66         -15.17          5.358         -31.14          38.67          71.06           59.1          20.56
    0.4063              -50.78          7.345          51.16          56.62         -15.19          5.417         -30.96          38.49          70.46          59.31          20.67
    0.4179              -50.82          7.421          51.16          56.56         -15.21          5.486         -30.75          38.29          69.75          59.56          20.79
    0.4295              -50.87          7.512          51.17           56.5         -15.24          5.569          -30.5          38.04           68.9          59.86          20.94
    0.4411              -50.93          7.623          51.17          56.42         -15.27           5.67         -30.19          37.74          67.87          60.23          21.12
    0.4528              -51.01          7.758          51.18          56.32         -15.31          5.793         -29.82          37.38          66.62          60.68          21.34
    0.4644               -51.1          7.925          51.18           56.2         -15.36          5.945         -29.36          36.93          65.07          61.23          21.62
     0.476              -51.21          8.133          51.19          56.05         -15.42          6.135         -28.78          36.37          63.13          61.92          21.96
    0.4876              -51.35          8.395           51.2          55.87          -15.5          6.373         -28.06          35.66           60.7          62.79          22.39
    0.4992              -51.53          8.729          51.22          55.63         -15.59          6.677         -27.13          34.76           57.6          63.89          22.94
    0.5108              -51.77          9.155          51.24          55.32         -15.72          7.065         -25.96          33.61          53.64           65.3          23.64
    0.5224              -52.06          9.702          51.26          54.93         -15.88          7.563         -24.44          32.14          48.55          67.11          24.54
     0.534              -52.44           10.4          51.29          54.43         -16.08            8.2         -22.51          30.26          42.06          69.42          25.68
    0.5456              -52.92          11.28          51.33          53.81         -16.34            9.0         -20.08          27.89          33.89          72.33          27.13
    0.5572              -53.51          12.35          51.37          53.04         -16.65          9.976         -17.12           25.0          23.93          75.88          28.88
    0.5688              -54.18          13.59          51.42          52.15         -17.01          11.11         -13.69          21.65           12.4          79.98          30.92
    0.5805              -54.92          14.94          51.48          51.19         -17.41          12.33          -9.97          18.03       -0.09659          84.43          33.13
    0.5921              -55.65          16.28          51.54          50.23          -17.8          13.55         -6.254          14.41         -12.59          88.88          35.34
    0.6037              -56.32          17.52          51.59          49.35         -18.16          14.69         -2.821          11.06         -24.13          92.99          37.37
    0.6153              -56.91           18.6          51.64          48.58         -18.47          15.66         0.1397          8.174         -34.08          96.53          39.13
    0.6269              -57.39          19.48          51.67          47.95         -18.73          16.46           2.57          5.805         -42.25          99.44          40.57
    0.6385              -57.77          20.17           51.7          47.46         -18.93           17.1          4.502          3.921         -48.75          101.8          41.72
    0.6501              -58.06          20.72          51.73          47.06         -19.09           17.6          6.015          2.446         -53.83          103.6          42.62
    0.6617               -58.3          21.15          51.74          46.76         -19.22          17.98          7.194          1.296         -57.79          105.0          43.32
    0.6733              -58.48          21.48          51.76          46.52         -19.32          18.29          8.115         0.3983         -60.89          106.1          43.87
    0.6849              -58.62          21.74          51.77          46.33         -19.39          18.53           8.84         -0.308         -63.33          106.9           44.3
